<svg xmlns="http://www.w3.org/2000/svg" width="720" height="360" font-family="monospace" font-size="10">
<rect width="720" height="360" fill="white"/>
<text x="10" y="14">E8: normalized RSS vs normalized ops per family (S16 telemetry)</text>
<polyline points="72.3,259.9 94.2,234.2 118.5,230.2 144.4,201.9 165.2,199.6 189.0,198.0 213.6,159.0 241.2,157.4 265.0,136.5 288.2,134.0 314.1,132.4 340.1,124.0 364.6,122.4 386.7,121.6 411.4,97.3 435.3,96.5 460.8,84.1 483.9,83.2 511.2,76.1 532.7,58.6 557.7,58.6 580.0,42.5 604.9,41.8 627.9,41.0 630.0,40.0" fill="none" stroke="#1f77b4" stroke-width="1.5"/>
<text x="462" y="34" fill="#1f77b4">E8a</text>
<polyline points="38.0,282.5 44.2,276.2 49.7,271.6 55.8,266.8 60.6,238.0 66.3,237.5 71.4,237.0 76.7,236.5 81.7,235.2 87.4,234.7 91.6,188.9 96.7,188.7 102.1,188.2 107.0,187.9 112.0,187.7 117.5,187.4 121.7,178.3 127.5,178.0 133.3,178.0 138.0,177.7 143.6,177.5 148.9,177.5 153.0,145.8 158.3,145.8 163.4,145.5 168.5,145.5 173.4,145.3 178.8,145.3 182.9,139.8 187.8,139.7 192.3,139.7 197.5,139.7 202.8,139.7 208.0,139.4 212.1,118.8 216.9,118.8 221.2,118.8 226.0,118.8 230.9,118.6 235.8,118.6 240.0,97.1 244.1,96.3 249.0,96.3 253.7,96.3 258.6,96.3 263.4,96.1 268.1,96.1 271.8,90.1 276.3,90.1 280.6,89.9 285.2,89.9 289.8,89.9 294.5,89.9 299.1,87.6 302.3,62.2 306.6,61.9 310.6,61.9 314.6,61.9 318.6,61.9 322.9,61.9 327.3,61.9 330.0,77.8 334.1,77.7 339.7,77.7 345.5,77.7 351.1,77.7 357.2,77.7 361.2,66.2 366.7,66.2 372.3,66.2 377.7,66.2 382.8,66.2 387.6,66.2 391.0,59.2 396.1,59.2 401.4,59.2 406.3,59.2 411.6,59.2 416.8,59.2 420.6,59.0 425.9,59.0 430.9,59.0 435.6,59.0 440.7,59.0 445.6,59.0 450.0,59.0 454.4,58.9 459.5,58.9 464.6,58.9 469.4,58.9 474.4,58.9 479.0,58.9 480.1,58.5 485.2,58.5 489.4,58.5 493.9,58.5 498.7,58.5 503.4,58.5 508.2,58.6 511.3,58.5 515.7,58.5 520.6,58.5 525.1,58.5 529.3,58.5 533.8,58.5 538.1,58.5 541.2,58.4 545.7,58.4 549.9,58.4 554.0,58.4 558.3,58.4 562.9,58.4 567.4,58.4 570.9,57.7 575.4,57.7 580.0,57.7 584.4,57.7 589.0,57.7 593.5,57.7 597.5,57.7 600.4,40.3 604.7,40.3 608.9,40.3 612.9,40.3 617.0,40.3 621.3,40.3 624.8,40.3 628.4,40.3 630.0,40.2 630.0,40.0" fill="none" stroke="#ff7f0e" stroke-width="1.5"/>
<text x="462" y="46" fill="#ff7f0e">E8b</text>
<polyline points="38.2,281.9 41.9,278.4 45.0,273.2 47.9,272.2 49.7,270.9 51.7,269.6 53.9,266.8 56.4,265.5 59.2,264.8 61.6,261.6 64.2,261.0 66.7,260.0 69.0,259.0 71.2,258.1 73.7,252.9 76.2,252.6 78.7,252.3 81.0,252.0 83.7,251.7 86.1,251.0 88.5,250.1 90.8,247.8 93.3,247.8 95.3,247.5 96.5,247.2 98.5,243.0 100.5,243.0 102.5,242.7 104.5,242.7 106.8,242.3 109.5,200.5 111.9,200.1 114.1,199.5 116.1,198.9 118.8,197.6 121.1,197.3 123.1,196.6 125.1,191.8 127.9,190.8 130.5,189.5 132.8,189.2 135.3,186.3 137.6,186.3 139.8,186.3 142.2,186.0 144.9,186.0 147.4,185.0 149.6,184.7 151.7,183.4 154.4,180.6 156.8,180.2 158.9,179.9 161.3,179.3 164.0,178.6 166.3,178.3 168.5,178.0 171.4,177.3 174.1,177.0 176.5,176.1 178.5,171.9 180.9,171.6 182.7,170.9 184.7,170.3 186.5,169.6 189.0,167.4 191.2,167.4 193.2,167.4 195.1,167.4 197.4,165.1 199.7,165.1 201.8,165.1 203.8,165.1 206.3,160.6 208.6,160.6 210.5,160.6 212.6,160.6 215.1,160.6 217.5,159.7 219.4,159.7 221.3,159.7 223.8,156.1 226.0,156.1 228.0,156.1 229.9,156.1 232.3,153.2 234.3,153.2 236.2,153.2 238.2,152.6 240.5,152.6 242.8,150.7 244.9,150.7 246.8,150.4 249.2,149.4 251.3,149.4 253.0,149.4 254.8,149.1 256.8,144.9 259.0,144.6 261.2,143.9 263.3,143.6 265.9,141.4 268.3,141.4 270.6,141.4 272.7,141.4 275.0,139.1 277.4,139.1 279.3,139.1 281.1,139.1 282.9,138.8 285.0,134.7 287.4,134.7 289.5,134.7 291.5,134.7 293.8,134.7 296.1,134.7 298.2,134.7 300.3,134.3 302.8,134.0 305.0,133.4 306.9,133.1 308.8,132.7 311.1,128.2 313.1,127.6 314.9,127.6 316.5,127.3 318.1,127.0 320.6,126.6 322.8,126.3 325.1,125.7 327.2,125.3 329.9,125.3 332.4,125.0 334.8,124.7 336.8,124.4 339.4,120.2 341.7,119.9 343.8,119.9 345.8,118.9 348.1,118.9 350.2,118.9 352.4,118.9 354.6,118.9 356.9,117.0 359.0,116.7 361.1,116.7 363.1,116.4 365.5,112.2 367.7,112.2 369.8,112.2 371.7,112.2 373.8,112.2 375.9,111.9 378.0,111.5 380.0,111.2 382.2,109.0 384.5,109.0 386.7,108.6 388.7,108.3 390.7,103.8 393.2,103.8 395.5,103.8 397.5,103.5 399.4,103.2 401.8,100.9 404.2,100.9 406.2,98.7 408.1,98.7 410.2,92.6 412.5,92.6 414.6,92.3 416.5,92.3 418.4,92.3 420.6,89.7 422.8,89.7 424.7,89.7 426.5,89.7 428.5,88.7 430.7,88.7 432.7,88.7 434.8,88.7 436.9,86.8 439.2,86.5 441.4,86.5 443.4,86.5 445.3,86.5 447.5,82.6 449.6,82.3 451.2,82.3 453.0,82.3 455.1,80.4 457.0,80.4 458.4,80.4 460.1,77.2 461.6,77.2 463.5,77.2 465.8,77.2 467.7,77.2 469.4,77.2 470.9,77.2 472.9,73.9 474.7,73.9 476.6,73.9 478.2,73.9 479.3,73.9 481.2,73.9 483.2,73.9 485.2,73.9 487.0,73.9 489.2,72.0 491.6,72.0 493.9,72.0 496.0,72.0 497.7,69.4 500.1,69.4 502.2,69.4 504.2,69.4 506.0,69.4 508.3,69.4 510.4,69.4 512.4,69.4 514.4,69.4 516.8,69.4 519.0,69.4 521.1,69.4 523.1,69.4 525.4,65.9 527.5,65.6 529.4,65.6 531.0,65.6 532.7,65.6 535.3,65.6 537.5,65.6 539.5,65.6 541.3,65.5 543.7,65.5 545.9,65.5 547.7,65.2 549.7,64.9 552.1,60.7 554.5,60.7 556.2,60.7 558.0,60.7 560.2,60.4 562.6,60.4 564.7,60.4 566.5,60.4 568.5,60.4 570.9,60.4 572.8,60.1 574.8,59.7 576.8,59.4 579.0,55.2 581.1,55.2 583.2,54.9 585.2,54.9 587.3,54.3 589.2,54.3 591.3,54.3 593.2,54.3 595.0,52.3 597.4,52.3 599.5,52.3 601.5,52.3 603.4,52.3 605.7,48.5 607.9,48.5 609.8,48.2 611.6,48.2 613.8,46.2 615.8,46.2 617.9,46.2 619.7,46.2 621.9,44.6 624.3,44.6 626.5,44.6 628.5,44.3 630.0,40.0" fill="none" stroke="#2ca02c" stroke-width="1.5"/>
<text x="462" y="58" fill="#2ca02c">E8c</text>
<polyline points="46.5,246.2 60.3,209.6 73.1,169.1 86.4,165.8 100.7,163.6 111.3,117.8 122.8,117.3 135.0,116.8 146.6,116.2 158.7,115.7 171.0,115.1 184.5,115.1 198.5,114.6 211.3,114.6 223.5,114.6 235.8,114.1 248.6,114.1 260.4,114.1 272.9,114.1 286.0,113.5 297.8,109.7 308.8,109.7 318.1,106.5 328.1,106.5 337.5,106.5 347.6,106.5 359.0,106.0 370.1,106.0 382.3,106.0 394.8,105.5 406.5,105.5 417.7,103.3 430.1,96.3 442.8,96.3 452.8,94.1 462.3,88.7 474.4,88.7 487.5,81.7 499.0,81.1 511.3,74.6 524.3,67.6 534.3,67.6 545.4,67.0 556.7,60.6 568.7,57.3 575.5,51.9 585.3,47.6 595.2,45.4 604.8,43.8 613.8,42.1 623.4,41.6 630.0,40.2 630.0,40.0" fill="none" stroke="#d62728" stroke-width="1.5"/>
<text x="462" y="70" fill="#d62728">E8d</text>
<polyline points="117.5,239.7 177.1,203.2 230.0,180.4 280.0,163.0 330.0,149.4 380.0,129.5 430.0,107.2 483.8,88.2 540.6,70.5 602.1,55.0 630.0,40.0" fill="none" stroke="#9467bd" stroke-width="1.5"/>
<text x="462" y="82" fill="#9467bd">E8e</text>
<polyline points="43.1,263.9 54.5,255.1 65.6,242.5 75.3,234.2 84.6,225.9 95.8,217.0 107.0,210.5 117.0,205.5 127.7,200.1 136.0,197.9 140.2,195.8 147.1,193.5 154.0,190.1 160.0,189.0 165.7,187.2 169.9,185.5 176.5,181.7 183.1,180.0 191.1,178.3 199.7,177.7 208.2,170.9 215.5,166.6 223.4,162.0 232.0,155.8 240.0,154.7 247.9,147.1 256.3,146.0 265.1,144.8 273.8,142.2 280.5,139.1 289.1,132.9 296.5,130.0 305.0,124.8 312.4,121.7 320.0,121.7 326.5,120.8 332.1,119.8 339.9,119.8 346.0,116.9 353.6,116.6 361.2,115.1 371.3,114.5 380.0,114.0 388.6,113.8 398.0,113.2 407.3,108.8 417.6,107.7 426.9,102.9 436.5,99.0 445.4,92.7 456.2,91.2 467.9,88.4 478.9,86.2 488.1,82.2 496.7,79.3 505.6,77.6 515.3,74.1 524.2,71.4 534.9,62.2 545.2,59.4 555.7,55.1 566.5,52.8 576.8,49.2 585.6,47.0 594.2,46.3 602.9,45.2 611.8,44.5 622.1,40.0 630.0,64.5" fill="none" stroke="#8c564b" stroke-width="1.5"/>
<text x="462" y="94" fill="#8c564b">E8f</text>
<polyline points="414.0,112.7 630.0,41.2 630.0,40.0" fill="none" stroke="#e377c2" stroke-width="1.5"/>
<text x="462" y="106" fill="#e377c2">E8g</text>
<polyline points="40.7,274.3 46.7,269.5 52.9,264.0 59.4,258.4 65.4,249.6 72.2,248.4 78.7,247.2 84.8,241.7 91.1,240.9 97.2,239.3 103.3,236.1 109.2,229.3 114.9,229.3 121.2,228.9 127.8,224.6 134.0,224.2 140.3,221.0 146.2,213.8 152.4,213.8 158.9,213.4 165.5,210.6 171.7,207.4 178.4,200.7 185.3,200.7 192.2,200.3 198.7,198.7 205.4,196.3 212.0,192.7 218.3,185.6 225.2,185.6 231.9,185.6 238.3,183.9 244.2,181.5 250.6,177.9 256.8,170.8 263.4,170.8 270.0,169.7 276.5,151.5 283.2,151.5 289.1,151.5 295.5,151.1 302.2,151.1 308.8,151.1 315.6,150.4 321.8,149.6 328.0,148.4 334.7,145.2 341.3,138.8 347.5,138.8 353.8,135.6 360.4,134.4 366.5,134.0 372.7,130.8 379.2,124.1 385.4,123.7 391.0,123.7 397.4,120.5 403.8,119.7 410.5,116.1 416.7,109.0 423.4,109.0 430.0,109.0 436.5,106.6 443.2,106.6 449.5,103.8 456.1,97.4 462.6,97.4 469.2,97.4 475.1,95.4 480.9,95.0 487.3,94.2 493.8,85.3 500.0,81.7 506.3,81.7 512.4,41.2 518.7,41.2 525.2,41.2 531.5,41.2 537.8,41.2 541.9,41.2 546.4,41.2 551.4,41.2 557.4,40.8 563.2,40.8 569.1,40.8 575.1,40.8 581.3,40.8 587.5,40.8 593.4,40.8 599.7,40.8 606.0,40.4 612.3,40.4 618.6,40.4 624.4,40.4 630.0,40.0" fill="none" stroke="#7f7f7f" stroke-width="1.5"/>
<text x="462" y="118" fill="#7f7f7f">E8h</text>
<polyline points="41.4,285.2 44.9,280.6 47.1,279.3 49.3,278.4 51.2,274.3 54.2,273.6 57.1,266.4 60.0,265.8 62.8,264.6 65.8,264.2 68.9,263.9 72.0,263.5 74.9,254.0 77.9,253.6 80.9,253.4 83.9,252.7 86.9,252.5 89.9,252.2 92.2,252.2 94.8,246.7 97.6,246.5 100.5,246.2 103.6,246.2 106.5,245.1 108.6,244.9 110.7,244.9 113.0,244.6 115.6,231.2 118.5,231.0 121.2,231.0 124.1,231.0 127.1,230.7 130.0,230.7 132.8,230.7 135.8,223.2 138.6,223.2 141.4,223.2 144.3,223.2 147.3,223.2 150.0,222.5 152.7,215.7 155.7,215.7 158.6,215.7 161.4,215.7 164.3,215.7 167.3,215.7 170.3,215.5 173.5,203.7 176.4,203.7 179.6,203.7 182.6,203.5 185.5,203.5 188.4,203.5 191.2,203.5 194.1,196.3 196.8,196.3 199.5,196.3 202.1,196.3 204.5,196.3 207.2,196.3 210.0,196.1 212.6,192.3 215.4,192.3 218.3,192.3 221.2,192.1 224.0,192.1 226.6,192.1 229.4,192.1 232.2,176.5 234.9,176.5 238.0,176.5 240.8,176.5 243.5,176.5 246.4,176.3 248.9,176.1 251.3,167.0 253.9,167.0 256.8,167.0 258.8,167.0 261.5,166.8 264.3,166.8 266.4,166.8 268.7,166.8 271.1,163.0 273.6,163.0 276.4,163.0 278.9,163.0 281.7,162.8 284.5,162.8 287.2,162.8 290.0,162.8 292.7,146.8 295.4,146.8 297.8,146.8 300.4,146.6 301.9,146.6 304.0,146.6 306.1,146.6 308.4,146.6 310.2,146.6 312.6,137.1 314.9,137.1 316.8,137.1 319.4,137.1 322.0,137.1 324.9,137.1 327.4,136.9 330.1,136.9 332.8,130.2 335.3,130.2 338.3,130.2 341.1,130.2 343.9,130.2 346.5,130.2 349.1,130.2 351.7,123.8 354.4,122.4 357.1,122.4 359.7,122.4 362.5,122.4 365.2,122.4 367.9,122.4 370.5,122.4 372.7,119.0 375.8,119.0 378.7,119.0 381.3,119.0 384.1,119.0 386.9,119.0 389.7,118.8 392.7,118.8 395.7,118.7 398.5,118.7 401.3,118.7 404.3,118.7 407.0,118.7 409.4,118.7 412.3,118.7 414.8,111.9 417.6,111.9 420.3,111.9 422.9,111.9 425.7,111.9 428.7,111.9 431.3,111.9 434.1,111.9 436.7,107.6 439.2,107.6 442.1,107.4 444.8,107.4 447.1,107.4 449.9,107.4 452.7,107.4 455.4,104.4 458.2,104.4 461.1,104.4 463.8,104.4 466.6,104.4 469.2,104.4 471.6,104.4 474.1,98.5 476.8,95.8 479.6,95.8 482.4,95.8 485.2,95.8 488.0,95.8 490.7,95.8 493.4,95.8 496.2,78.9 498.7,78.6 501.4,78.6 504.3,78.6 507.1,78.6 509.7,78.6 512.5,78.6 515.1,70.5 517.7,70.5 520.3,70.5 523.0,70.5 525.6,70.5 528.2,70.5 530.9,70.3 533.2,59.5 535.7,59.5 538.4,59.5 540.7,59.5 543.5,59.5 546.3,59.5 548.9,59.5 551.6,59.5 554.3,54.2 557.0,54.2 559.7,54.2 562.5,54.2 565.2,54.2 567.7,54.2 570.0,54.2 571.1,54.2 573.0,54.0 575.4,54.0 578.2,54.0 580.8,54.0 583.4,54.0 586.2,54.0 588.9,54.0 591.1,54.0 593.4,51.3 595.4,51.3 598.0,51.3 600.5,51.3 602.8,51.3 605.3,51.3 607.6,51.3 609.7,51.3 612.0,46.8 614.3,46.8 616.8,46.8 619.3,46.8 621.8,46.8 624.4,46.8 626.9,46.8 629.5,46.8 630.0,40.0" fill="none" stroke="#bcbd22" stroke-width="1.5"/>
<text x="462" y="130" fill="#bcbd22">E8i</text>
<line x1="30" y1="300" x2="630" y2="300" stroke="black"/><line x1="30" y1="40" x2="30" y2="300" stroke="black"/><text x="560" y="315">ops (norm)</text><text x="2" y="30">RSS (norm)</text></svg>