<svg xmlns="http://www.w3.org/2000/svg" width="880" height="560">
<rect width="880" height="560" fill="white"/>
<text x="440.0" y="30" text-anchor="middle" font-size="18" font-weight="bold">Query latency vs head count (p50, K=100 pools)</text>
<line x1="90" y1="70" x2="90" y2="400" stroke="#333"/>
<line x1="90" y1="400" x2="790" y2="400" stroke="#333"/>
<line x1="90" y1="70.0" x2="790" y2="70.0" stroke="#eee"/>
<text x="84" y="74.0" text-anchor="end" font-size="11" fill="#666">25</text>
<line x1="90" y1="136.0" x2="790" y2="136.0" stroke="#eee"/>
<text x="84" y="140.0" text-anchor="end" font-size="11" fill="#666">20</text>
<line x1="90" y1="202.0" x2="790" y2="202.0" stroke="#eee"/>
<text x="84" y="206.0" text-anchor="end" font-size="11" fill="#666">15</text>
<line x1="90" y1="268.0" x2="790" y2="268.0" stroke="#eee"/>
<text x="84" y="272.0" text-anchor="end" font-size="11" fill="#666">10</text>
<line x1="90" y1="334.0" x2="790" y2="334.0" stroke="#eee"/>
<text x="84" y="338.0" text-anchor="end" font-size="11" fill="#666">5</text>
<line x1="90" y1="400.0" x2="790" y2="400.0" stroke="#eee"/>
<text x="84" y="404.0" text-anchor="end" font-size="11" fill="#666">0</text>
<text x="56" y="235.0" font-size="12" fill="#333" transform="rotate(-90 56 235.0)">p50 latency ms</text>
<text x="178" y="418" text-anchor="middle" font-size="12">1 heads</text>
<text x="352" y="418" text-anchor="middle" font-size="12">2 heads</text>
<text x="528" y="418" text-anchor="middle" font-size="12">4 heads</text>
<text x="702" y="418" text-anchor="middle" font-size="12">8 heads</text>
<rect x="110.4" y="377.4" width="46.7" height="22.6" fill="#4056b0"/>
<text x="133.8" y="373.4" text-anchor="middle" font-size="9.5" fill="#333">1.713</text>
<rect x="197.9" y="371.9" width="46.7" height="28.1" fill="#b04040"/>
<text x="221.2" y="367.9" text-anchor="middle" font-size="9.5" fill="#333">2.125</text>
<rect x="285.4" y="345.1" width="46.7" height="54.9" fill="#4056b0"/>
<text x="308.8" y="341.1" text-anchor="middle" font-size="9.5" fill="#333">4.157</text>
<rect x="372.9" y="373.5" width="46.7" height="26.5" fill="#b04040"/>
<text x="396.2" y="369.5" text-anchor="middle" font-size="9.5" fill="#333">2.008</text>
<rect x="460.4" y="311.7" width="46.7" height="88.3" fill="#4056b0"/>
<text x="483.8" y="307.7" text-anchor="middle" font-size="9.5" fill="#333">6.692</text>
<rect x="547.9" y="342.1" width="46.7" height="57.9" fill="#b04040"/>
<text x="571.2" y="338.1" text-anchor="middle" font-size="9.5" fill="#333">4.383</text>
<rect x="635.4" y="108.5" width="46.7" height="291.5" fill="#4056b0"/>
<text x="658.8" y="104.5" text-anchor="middle" font-size="9.5" fill="#333">22.084</text>
<rect x="722.9" y="255.8" width="46.7" height="144.2" fill="#b04040"/>
<text x="746.2" y="251.8" text-anchor="middle" font-size="9.5" fill="#333">10.926</text>
<rect x="650" y="80" width="12" height="12" fill="#4056b0"/>
<text x="667" y="90" font-size="12">serial</text>
<rect x="650" y="97" width="12" height="12" fill="#b04040"/>
<text x="667" y="107" font-size="12">parallel (2 workers)</text>
<text x="60" y="496" font-size="11.5" fill="#555" font-style="italic">Caption (auto): serial p50 grows super-linearly at 8 heads (22.1 ms); 2-worker parallelism halves it (10.9 m</text>
<text x="60" y="2224" font-size="11.5" fill="#555" font-style="italic">s) on the 2-CPU sandbox; parallelism HURTS at 1 head (thread overhead).</text>
<text x="60" y="546" font-size="10.5" fill="#888">Source: results/head-scaling-latency.csv | Experiments: PH3C-HEAD-001-*-S5K</text></svg>
