<svg xmlns="http://www.w3.org/2000/svg" width="860" height="560" viewBox="0 0 860 560">
<rect width="860" height="560" fill="white"/>
<text x="430.0" y="34" text-anchor="middle" font-size="19" font-weight="bold" fill="#111">Head-selection ceiling analysis (R@10)</text>
<line x1="90" y1="70.0" x2="840" y2="70.0" stroke="#e5e5e5"/>
<text x="82" y="74.0" text-anchor="end" font-size="11" fill="#666">1.11</text>
<line x1="90" y1="138.0" x2="840" y2="138.0" stroke="#e5e5e5"/>
<text x="82" y="142.0" text-anchor="end" font-size="11" fill="#666">0.89</text>
<line x1="90" y1="206.0" x2="840" y2="206.0" stroke="#e5e5e5"/>
<text x="82" y="210.0" text-anchor="end" font-size="11" fill="#666">0.67</text>
<line x1="90" y1="274.0" x2="840" y2="274.0" stroke="#e5e5e5"/>
<text x="82" y="278.0" text-anchor="end" font-size="11" fill="#666">0.44</text>
<line x1="90" y1="342.0" x2="840" y2="342.0" stroke="#e5e5e5"/>
<text x="82" y="346.0" text-anchor="end" font-size="11" fill="#666">0.22</text>
<line x1="90" y1="410.0" x2="840" y2="410.0" stroke="#e5e5e5"/>
<text x="82" y="414.0" text-anchor="end" font-size="11" fill="#666">0.00</text>
<line x1="90" y1="70" x2="90" y2="410" stroke="#333"/>
<line x1="90" y1="410" x2="840" y2="410" stroke="#333"/>
<rect x="143.9" y="291.2" width="79.7" height="118.8" fill="#4056b0"/>
<text x="183.8" y="287.2" text-anchor="middle" font-size="10" fill="#333">0.389</text>
<text x="184" y="428" text-anchor="middle" font-size="13" fill="#111">Uniform</text>
<rect x="331.4" y="286.7" width="79.7" height="123.3" fill="#4056b0"/>
<text x="371.2" y="282.7" text-anchor="middle" font-size="10" fill="#333">0.403</text>
<text x="371" y="428" text-anchor="middle" font-size="13" fill="#111">Global-best</text>
<rect x="518.9" y="212.9" width="79.7" height="197.1" fill="#4056b0"/>
<text x="558.8" y="208.9" text-anchor="middle" font-size="10" fill="#333">0.645</text>
<text x="559" y="428" text-anchor="middle" font-size="13" fill="#111">Trained gating</text>
<rect x="706.4" y="114.3" width="79.7" height="295.7" fill="#4056b0"/>
<text x="746.2" y="110.3" text-anchor="middle" font-size="10" fill="#333">0.967</text>
<text x="746" y="428" text-anchor="middle" font-size="13" fill="#111">Oracle head</text>
<rect x="90" y="448" width="12" height="12" fill="#4056b0"/>
<text x="106" y="458" font-size="12" fill="#111">R@10</text>
<text x="90" y="488" font-size="12" fill="#333">Y: Recall@10 (TEST)</text>
<text x="90" y="510" font-size="11.5" fill="#555" font-style="italic">Caption (auto): gap recovered = (gating−uniform)/(oracle−uniform) = 0.443. The oracle (0.9672) is the emp</text>
<text x="90" y="527" font-size="11.5" fill="#555" font-style="italic">irical per-query best head — the gate closes 44% of the remaining distance to it.</text>
<text x="90" y="548" font-size="10.5" fill="#888">Source: results/complementary-retrieval.csv | Experiments: PH3B-COMP-001</text>
</svg>
